<svg xmlns="http://www.w3.org/2000/svg" viewBox="0 0 420 420" role="img" aria-label="Tracé de Lac de Chateaupré › Cabane de Moiry À/R"><rect width="420" height="420" fill="#f4f1ea"/><line x1="63.7" y1="16.0" x2="65.5" y2="18.0" stroke="rgb(90,150,90)" stroke-width="3.4" stroke-linecap="round"/><line x1="65.5" y1="18.0" x2="68.5" y2="21.7" stroke="rgb(90,149,89)" stroke-width="3.4" stroke-linecap="round"/><line x1="68.5" y1="21.7" x2="76.7" y2="24.5" stroke="rgb(90,149,89)" stroke-width="3.4" stroke-linecap="round"/><line x1="76.7" y1="24.5" x2="80.9" y2="26.6" stroke="rgb(90,149,89)" stroke-width="3.4" stroke-linecap="round"/><line x1="80.9" y1="26.6" x2="87.4" y2="29.3" stroke="rgb(91,149,89)" stroke-width="3.4" stroke-linecap="round"/><line x1="87.4" y1="29.3" x2="95.4" y2="27.8" stroke="rgb(91,149,89)" stroke-width="3.4" stroke-linecap="round"/><line x1="95.4" y1="27.8" x2="101.6" y2="26.7" stroke="rgb(92,148,89)" stroke-width="3.4" stroke-linecap="round"/><line x1="101.6" y1="26.7" x2="110.3" y2="27.4" stroke="rgb(93,148,88)" stroke-width="3.4" stroke-linecap="round"/><line x1="110.3" y1="27.4" x2="120.9" y2="27.3" stroke="rgb(93,148,88)" stroke-width="3.4" stroke-linecap="round"/><line x1="120.9" y1="27.3" x2="124.7" y2="31.5" stroke="rgb(94,147,88)" stroke-width="3.4" stroke-linecap="round"/><line x1="124.7" y1="31.5" x2="128.8" y2="32.1" stroke="rgb(95,147,88)" stroke-width="3.4" stroke-linecap="round"/><line x1="128.8" y1="32.1" x2="136.3" y2="29.8" stroke="rgb(96,146,87)" stroke-width="3.4" stroke-linecap="round"/><line x1="136.3" y1="29.8" x2="141.6" y2="30.2" stroke="rgb(97,146,87)" stroke-width="3.4" stroke-linecap="round"/><line x1="141.6" y1="30.2" x2="144.6" y2="29.0" stroke="rgb(98,145,87)" stroke-width="3.4" stroke-linecap="round"/><line x1="144.6" y1="29.0" x2="146.8" y2="30.1" stroke="rgb(99,145,86)" stroke-width="3.4" stroke-linecap="round"/><line x1="146.8" y1="30.1" x2="153.5" y2="31.4" stroke="rgb(100,144,86)" stroke-width="3.4" stroke-linecap="round"/><line x1="153.5" y1="31.4" x2="155.6" y2="41.0" stroke="rgb(101,144,86)" stroke-width="3.4" stroke-linecap="round"/><line x1="155.6" y1="41.0" x2="155.9" y2="46.0" stroke="rgb(102,143,85)" stroke-width="3.4" stroke-linecap="round"/><line x1="155.9" y1="46.0" x2="157.6" y2="50.6" stroke="rgb(103,143,85)" stroke-width="3.4" stroke-linecap="round"/><line x1="157.6" y1="50.6" x2="161.2" y2="57.3" stroke="rgb(105,142,84)" stroke-width="3.4" stroke-linecap="round"/><line x1="161.2" y1="57.3" x2="162.8" y2="61.1" stroke="rgb(107,141,84)" stroke-width="3.4" stroke-linecap="round"/><line x1="162.8" y1="61.1" x2="166.1" y2="64.9" stroke="rgb(109,140,83)" stroke-width="3.4" stroke-linecap="round"/><line x1="166.1" y1="64.9" x2="184.5" y2="75.8" stroke="rgb(111,139,82)" stroke-width="3.4" stroke-linecap="round"/><line x1="184.5" y1="75.8" x2="185.9" y2="81.3" stroke="rgb(113,138,82)" stroke-width="3.4" stroke-linecap="round"/><line x1="185.9" y1="81.3" x2="188.9" y2="86.2" stroke="rgb(115,137,81)" stroke-width="3.4" stroke-linecap="round"/><line x1="188.9" y1="86.2" x2="193.0" y2="88.3" stroke="rgb(117,136,80)" stroke-width="3.4" stroke-linecap="round"/><line x1="193.0" y1="88.3" x2="200.4" y2="89.2" stroke="rgb(119,135,80)" stroke-width="3.4" stroke-linecap="round"/><line x1="200.4" y1="89.2" x2="202.6" y2="87.2" stroke="rgb(121,134,79)" stroke-width="3.4" stroke-linecap="round"/><line x1="202.6" y1="87.2" x2="209.0" y2="85.2" stroke="rgb(122,133,79)" stroke-width="3.4" stroke-linecap="round"/><line x1="209.0" y1="85.2" x2="213.0" y2="96.2" stroke="rgb(124,132,78)" stroke-width="3.4" stroke-linecap="round"/><line x1="213.0" y1="96.2" x2="219.4" y2="101.9" stroke="rgb(126,131,77)" stroke-width="3.4" stroke-linecap="round"/><line x1="219.4" y1="101.9" x2="219.3" y2="103.9" stroke="rgb(127,131,77)" stroke-width="3.4" stroke-linecap="round"/><line x1="219.3" y1="103.9" x2="228.2" y2="113.3" stroke="rgb(129,130,76)" stroke-width="3.4" stroke-linecap="round"/><line x1="228.2" y1="113.3" x2="232.9" y2="116.9" stroke="rgb(130,129,76)" stroke-width="3.4" stroke-linecap="round"/><line x1="232.9" y1="116.9" x2="234.7" y2="119.9" stroke="rgb(131,129,76)" stroke-width="3.4" stroke-linecap="round"/><line x1="234.7" y1="119.9" x2="240.5" y2="122.5" stroke="rgb(132,128,75)" stroke-width="3.4" stroke-linecap="round"/><line x1="240.5" y1="122.5" x2="244.2" y2="123.3" stroke="rgb(133,128,75)" stroke-width="3.4" stroke-linecap="round"/><line x1="244.2" y1="123.3" x2="247.4" y2="124.6" stroke="rgb(134,127,75)" stroke-width="3.4" stroke-linecap="round"/><line x1="247.4" y1="124.6" x2="253.4" y2="127.0" stroke="rgb(135,127,74)" stroke-width="3.4" stroke-linecap="round"/><line x1="253.4" y1="127.0" x2="259.1" y2="131.2" stroke="rgb(135,127,74)" stroke-width="3.4" stroke-linecap="round"/><line x1="259.1" y1="131.2" x2="271.7" y2="138.0" stroke="rgb(136,126,74)" stroke-width="3.4" stroke-linecap="round"/><line x1="271.7" y1="138.0" x2="284.1" y2="149.8" stroke="rgb(137,126,74)" stroke-width="3.4" stroke-linecap="round"/><line x1="284.1" y1="149.8" x2="287.4" y2="160.0" stroke="rgb(137,126,74)" stroke-width="3.4" stroke-linecap="round"/><line x1="287.4" y1="160.0" x2="286.7" y2="169.8" stroke="rgb(138,125,73)" stroke-width="3.4" stroke-linecap="round"/><line x1="286.7" y1="169.8" x2="287.8" y2="175.2" stroke="rgb(138,125,73)" stroke-width="3.4" stroke-linecap="round"/><line x1="287.8" y1="175.2" x2="289.7" y2="178.4" stroke="rgb(139,125,73)" stroke-width="3.4" stroke-linecap="round"/><line x1="289.7" y1="178.4" x2="294.0" y2="182.6" stroke="rgb(139,125,73)" stroke-width="3.4" stroke-linecap="round"/><line x1="294.0" y1="182.6" x2="294.2" y2="185.4" stroke="rgb(139,125,73)" stroke-width="3.4" stroke-linecap="round"/><line x1="294.2" y1="185.4" x2="296.2" y2="191.0" stroke="rgb(140,124,73)" stroke-width="3.4" stroke-linecap="round"/><line x1="296.2" y1="191.0" x2="298.1" y2="194.0" stroke="rgb(140,124,73)" stroke-width="3.4" stroke-linecap="round"/><line x1="298.1" y1="194.0" x2="299.9" y2="195.5" stroke="rgb(141,124,72)" stroke-width="3.4" stroke-linecap="round"/><line x1="299.9" y1="195.5" x2="300.2" y2="212.6" stroke="rgb(141,124,72)" stroke-width="3.4" stroke-linecap="round"/><line x1="300.2" y1="212.6" x2="303.0" y2="233.5" stroke="rgb(142,123,72)" stroke-width="3.4" stroke-linecap="round"/><line x1="303.0" y1="233.5" x2="307.7" y2="238.0" stroke="rgb(142,123,72)" stroke-width="3.4" stroke-linecap="round"/><line x1="307.7" y1="238.0" x2="307.4" y2="245.2" stroke="rgb(143,123,72)" stroke-width="3.4" stroke-linecap="round"/><line x1="307.4" y1="245.2" x2="308.2" y2="248.9" stroke="rgb(143,123,72)" stroke-width="3.4" stroke-linecap="round"/><line x1="308.2" y1="248.9" x2="307.8" y2="252.7" stroke="rgb(144,122,71)" stroke-width="3.4" stroke-linecap="round"/><line x1="307.8" y1="252.7" x2="308.8" y2="258.7" stroke="rgb(145,122,71)" stroke-width="3.4" stroke-linecap="round"/><line x1="308.8" y1="258.7" x2="308.2" y2="264.1" stroke="rgb(145,122,71)" stroke-width="3.4" stroke-linecap="round"/><line x1="308.2" y1="264.1" x2="308.6" y2="279.6" stroke="rgb(146,121,71)" stroke-width="3.4" stroke-linecap="round"/><line x1="308.6" y1="279.6" x2="309.6" y2="282.4" stroke="rgb(147,121,70)" stroke-width="3.4" stroke-linecap="round"/><line x1="309.6" y1="282.4" x2="311.8" y2="283.6" stroke="rgb(148,120,70)" stroke-width="3.4" stroke-linecap="round"/><line x1="311.8" y1="283.6" x2="314.8" y2="288.6" stroke="rgb(149,120,70)" stroke-width="3.4" stroke-linecap="round"/><line x1="314.8" y1="288.6" x2="318.4" y2="288.4" stroke="rgb(150,119,69)" stroke-width="3.4" stroke-linecap="round"/><line x1="318.4" y1="288.4" x2="322.2" y2="290.7" stroke="rgb(151,119,69)" stroke-width="3.4" stroke-linecap="round"/><line x1="322.2" y1="290.7" x2="323.0" y2="292.4" stroke="rgb(152,118,69)" stroke-width="3.4" stroke-linecap="round"/><line x1="323.0" y1="292.4" x2="321.6" y2="297.3" stroke="rgb(153,118,68)" stroke-width="3.4" stroke-linecap="round"/><line x1="321.6" y1="297.3" x2="323.5" y2="302.4" stroke="rgb(155,117,68)" stroke-width="3.4" stroke-linecap="round"/><line x1="323.5" y1="302.4" x2="325.2" y2="316.1" stroke="rgb(156,116,67)" stroke-width="3.4" stroke-linecap="round"/><line x1="325.2" y1="316.1" x2="322.2" y2="321.6" stroke="rgb(158,115,67)" stroke-width="3.4" stroke-linecap="round"/><line x1="322.2" y1="321.6" x2="322.4" y2="323.1" stroke="rgb(160,114,66)" stroke-width="3.4" stroke-linecap="round"/><line x1="322.4" y1="323.1" x2="321.2" y2="326.6" stroke="rgb(162,113,65)" stroke-width="3.4" stroke-linecap="round"/><line x1="321.2" y1="326.6" x2="324.0" y2="326.9" stroke="rgb(163,113,65)" stroke-width="3.4" stroke-linecap="round"/><line x1="324.0" y1="326.9" x2="323.3" y2="332.5" stroke="rgb(164,112,65)" stroke-width="3.4" stroke-linecap="round"/><line x1="323.3" y1="332.5" x2="321.8" y2="335.0" stroke="rgb(165,112,64)" stroke-width="3.4" stroke-linecap="round"/><line x1="321.8" y1="335.0" x2="322.4" y2="338.6" stroke="rgb(166,111,64)" stroke-width="3.4" stroke-linecap="round"/><line x1="322.4" y1="338.6" x2="323.3" y2="336.2" stroke="rgb(168,110,63)" stroke-width="3.4" stroke-linecap="round"/><line x1="323.3" y1="336.2" x2="324.8" y2="335.2" stroke="rgb(169,110,63)" stroke-width="3.4" stroke-linecap="round"/><line x1="324.8" y1="335.2" x2="327.5" y2="334.3" stroke="rgb(169,110,63)" stroke-width="3.4" stroke-linecap="round"/><line x1="327.5" y1="334.3" x2="328.7" y2="332.8" stroke="rgb(170,109,63)" stroke-width="3.4" stroke-linecap="round"/><line x1="328.7" y1="332.8" x2="331.7" y2="332.2" stroke="rgb(171,109,62)" stroke-width="3.4" stroke-linecap="round"/><line x1="331.7" y1="332.2" x2="329.7" y2="334.3" stroke="rgb(172,108,62)" stroke-width="3.4" stroke-linecap="round"/><line x1="329.7" y1="334.3" x2="329.6" y2="336.1" stroke="rgb(173,108,62)" stroke-width="3.4" stroke-linecap="round"/><line x1="329.6" y1="336.1" x2="328.2" y2="339.4" stroke="rgb(175,107,61)" stroke-width="3.4" stroke-linecap="round"/><line x1="328.2" y1="339.4" x2="330.1" y2="344.0" stroke="rgb(176,106,61)" stroke-width="3.4" stroke-linecap="round"/><line x1="330.1" y1="344.0" x2="330.8" y2="340.4" stroke="rgb(177,106,60)" stroke-width="3.4" stroke-linecap="round"/><line x1="330.8" y1="340.4" x2="335.8" y2="337.9" stroke="rgb(179,105,60)" stroke-width="3.4" stroke-linecap="round"/><line x1="335.8" y1="337.9" x2="336.5" y2="338.5" stroke="rgb(180,104,59)" stroke-width="3.4" stroke-linecap="round"/><line x1="336.5" y1="338.5" x2="334.0" y2="342.0" stroke="rgb(182,103,59)" stroke-width="3.4" stroke-linecap="round"/><line x1="334.0" y1="342.0" x2="334.3" y2="346.1" stroke="rgb(184,102,58)" stroke-width="3.4" stroke-linecap="round"/><line x1="334.3" y1="346.1" x2="331.0" y2="358.4" stroke="rgb(186,101,57)" stroke-width="3.4" stroke-linecap="round"/><line x1="331.0" y1="358.4" x2="336.2" y2="355.2" stroke="rgb(188,100,57)" stroke-width="3.4" stroke-linecap="round"/><line x1="336.2" y1="355.2" x2="335.6" y2="360.2" stroke="rgb(190,99,56)" stroke-width="3.4" stroke-linecap="round"/><line x1="335.6" y1="360.2" x2="339.4" y2="357.5" stroke="rgb(192,98,55)" stroke-width="3.4" stroke-linecap="round"/><line x1="339.4" y1="357.5" x2="338.6" y2="363.3" stroke="rgb(193,98,55)" stroke-width="3.4" stroke-linecap="round"/><line x1="338.6" y1="363.3" x2="342.6" y2="361.3" stroke="rgb(195,97,54)" stroke-width="3.4" stroke-linecap="round"/><line x1="342.6" y1="361.3" x2="342.1" y2="366.4" stroke="rgb(196,96,54)" stroke-width="3.4" stroke-linecap="round"/><line x1="342.1" y1="366.4" x2="346.1" y2="363.8" stroke="rgb(198,95,53)" stroke-width="3.4" stroke-linecap="round"/><line x1="346.1" y1="363.8" x2="345.1" y2="367.9" stroke="rgb(199,95,53)" stroke-width="3.4" stroke-linecap="round"/><line x1="345.1" y1="367.9" x2="347.3" y2="366.5" stroke="rgb(200,94,53)" stroke-width="3.4" stroke-linecap="round"/><line x1="347.3" y1="366.5" x2="347.0" y2="368.6" stroke="rgb(200,94,53)" stroke-width="3.4" stroke-linecap="round"/><line x1="347.0" y1="368.6" x2="348.6" y2="367.6" stroke="rgb(201,94,52)" stroke-width="3.4" stroke-linecap="round"/><line x1="348.6" y1="367.6" x2="348.3" y2="369.2" stroke="rgb(202,93,52)" stroke-width="3.4" stroke-linecap="round"/><line x1="348.3" y1="369.2" x2="349.6" y2="368.7" stroke="rgb(202,93,52)" stroke-width="3.4" stroke-linecap="round"/><line x1="349.6" y1="368.7" x2="350.4" y2="375.2" stroke="rgb(203,93,52)" stroke-width="3.4" stroke-linecap="round"/><line x1="350.4" y1="375.2" x2="352.5" y2="372.8" stroke="rgb(204,92,51)" stroke-width="3.4" stroke-linecap="round"/><line x1="352.5" y1="372.8" x2="353.2" y2="376.8" stroke="rgb(204,92,51)" stroke-width="3.4" stroke-linecap="round"/><line x1="353.2" y1="376.8" x2="354.4" y2="374.6" stroke="rgb(205,92,51)" stroke-width="3.4" stroke-linecap="round"/><line x1="354.4" y1="374.6" x2="355.6" y2="376.1" stroke="rgb(206,91,51)" stroke-width="3.4" stroke-linecap="round"/><line x1="355.6" y1="376.1" x2="356.3" y2="380.0" stroke="rgb(207,91,50)" stroke-width="3.4" stroke-linecap="round"/><line x1="356.3" y1="380.0" x2="355.8" y2="382.3" stroke="rgb(207,91,50)" stroke-width="3.4" stroke-linecap="round"/><line x1="355.8" y1="382.3" x2="353.1" y2="388.6" stroke="rgb(208,90,50)" stroke-width="3.4" stroke-linecap="round"/><line x1="353.1" y1="388.6" x2="352.5" y2="392.5" stroke="rgb(209,90,50)" stroke-width="3.4" stroke-linecap="round"/><line x1="352.5" y1="392.5" x2="351.0" y2="394.9" stroke="rgb(209,90,50)" stroke-width="3.4" stroke-linecap="round"/><line x1="351.0" y1="394.9" x2="350.2" y2="398.8" stroke="rgb(209,90,50)" stroke-width="3.4" stroke-linecap="round"/><line x1="350.2" y1="398.8" x2="348.5" y2="402.5" stroke="rgb(210,90,50)" stroke-width="3.4" stroke-linecap="round"/><line x1="348.5" y1="402.5" x2="348.0" y2="404.0" stroke="rgb(209,90,50)" stroke-width="3.4" stroke-linecap="round"/><line x1="348.0" y1="404.0" x2="348.5" y2="402.5" stroke="rgb(209,90,50)" stroke-width="3.4" stroke-linecap="round"/><line x1="348.5" y1="402.5" x2="350.2" y2="398.8" stroke="rgb(209,90,50)" stroke-width="3.4" stroke-linecap="round"/><line x1="350.2" y1="398.8" x2="351.0" y2="394.9" stroke="rgb(208,90,50)" stroke-width="3.4" stroke-linecap="round"/><line x1="351.0" y1="394.9" x2="352.5" y2="392.5" stroke="rgb(208,90,50)" stroke-width="3.4" stroke-linecap="round"/><line x1="352.5" y1="392.5" x2="353.1" y2="388.6" stroke="rgb(207,91,50)" stroke-width="3.4" stroke-linecap="round"/><line x1="353.1" y1="388.6" x2="355.8" y2="382.3" stroke="rgb(207,91,50)" stroke-width="3.4" stroke-linecap="round"/><line x1="355.8" y1="382.3" x2="356.3" y2="380.0" stroke="rgb(207,91,50)" stroke-width="3.4" stroke-linecap="round"/><line x1="356.3" y1="380.0" x2="355.6" y2="376.1" stroke="rgb(206,91,51)" stroke-width="3.4" stroke-linecap="round"/><line x1="355.6" y1="376.1" x2="354.4" y2="374.6" stroke="rgb(206,91,51)" stroke-width="3.4" stroke-linecap="round"/><line x1="354.4" y1="374.6" x2="353.2" y2="376.8" stroke="rgb(205,92,51)" stroke-width="3.4" stroke-linecap="round"/><line x1="353.2" y1="376.8" x2="352.5" y2="372.8" stroke="rgb(204,92,51)" stroke-width="3.4" stroke-linecap="round"/><line x1="352.5" y1="372.8" x2="350.4" y2="375.2" stroke="rgb(204,92,51)" stroke-width="3.4" stroke-linecap="round"/><line x1="350.4" y1="375.2" x2="349.6" y2="368.7" stroke="rgb(203,93,52)" stroke-width="3.4" stroke-linecap="round"/><line x1="349.6" y1="368.7" x2="348.3" y2="369.2" stroke="rgb(202,93,52)" stroke-width="3.4" stroke-linecap="round"/><line x1="348.3" y1="369.2" x2="348.6" y2="367.6" stroke="rgb(201,94,52)" stroke-width="3.4" stroke-linecap="round"/><line x1="348.6" y1="367.6" x2="347.0" y2="368.6" stroke="rgb(200,94,53)" stroke-width="3.4" stroke-linecap="round"/><line x1="347.0" y1="368.6" x2="347.3" y2="366.5" stroke="rgb(199,95,53)" stroke-width="3.4" stroke-linecap="round"/><line x1="347.3" y1="366.5" x2="345.1" y2="367.9" stroke="rgb(198,95,53)" stroke-width="3.4" stroke-linecap="round"/><line x1="345.1" y1="367.9" x2="346.1" y2="363.8" stroke="rgb(197,96,54)" stroke-width="3.4" stroke-linecap="round"/><line x1="346.1" y1="363.8" x2="342.1" y2="366.4" stroke="rgb(196,96,54)" stroke-width="3.4" stroke-linecap="round"/><line x1="342.1" y1="366.4" x2="342.6" y2="361.3" stroke="rgb(195,97,54)" stroke-width="3.4" stroke-linecap="round"/><line x1="342.6" y1="361.3" x2="338.6" y2="363.3" stroke="rgb(193,98,55)" stroke-width="3.4" stroke-linecap="round"/><line x1="338.6" y1="363.3" x2="339.4" y2="357.5" stroke="rgb(192,98,55)" stroke-width="3.4" stroke-linecap="round"/><line x1="339.4" y1="357.5" x2="335.6" y2="360.2" stroke="rgb(190,99,56)" stroke-width="3.4" stroke-linecap="round"/><line x1="335.6" y1="360.2" x2="336.2" y2="355.2" stroke="rgb(188,100,57)" stroke-width="3.4" stroke-linecap="round"/><line x1="336.2" y1="355.2" x2="331.0" y2="358.4" stroke="rgb(186,101,57)" stroke-width="3.4" stroke-linecap="round"/><line x1="331.0" y1="358.4" x2="334.3" y2="346.1" stroke="rgb(184,102,58)" stroke-width="3.4" stroke-linecap="round"/><line x1="334.3" y1="346.1" x2="334.0" y2="342.0" stroke="rgb(182,103,59)" stroke-width="3.4" stroke-linecap="round"/><line x1="334.0" y1="342.0" x2="336.5" y2="338.5" stroke="rgb(181,104,59)" stroke-width="3.4" stroke-linecap="round"/><line x1="336.5" y1="338.5" x2="335.8" y2="337.9" stroke="rgb(179,105,60)" stroke-width="3.4" stroke-linecap="round"/><line x1="335.8" y1="337.9" x2="330.8" y2="340.4" stroke="rgb(178,105,60)" stroke-width="3.4" stroke-linecap="round"/><line x1="330.8" y1="340.4" x2="330.1" y2="344.0" stroke="rgb(176,106,61)" stroke-width="3.4" stroke-linecap="round"/><line x1="330.1" y1="344.0" x2="328.2" y2="339.4" stroke="rgb(175,107,61)" stroke-width="3.4" stroke-linecap="round"/><line x1="328.2" y1="339.4" x2="329.6" y2="336.1" stroke="rgb(174,107,61)" stroke-width="3.4" stroke-linecap="round"/><line x1="329.6" y1="336.1" x2="329.7" y2="334.3" stroke="rgb(173,108,62)" stroke-width="3.4" stroke-linecap="round"/><line x1="329.7" y1="334.3" x2="331.7" y2="332.2" stroke="rgb(171,109,62)" stroke-width="3.4" stroke-linecap="round"/><line x1="331.7" y1="332.2" x2="328.7" y2="332.8" stroke="rgb(170,109,63)" stroke-width="3.4" stroke-linecap="round"/><line x1="328.7" y1="332.8" x2="327.5" y2="334.3" stroke="rgb(169,110,63)" stroke-width="3.4" stroke-linecap="round"/><line x1="327.5" y1="334.3" x2="324.8" y2="335.2" stroke="rgb(168,110,63)" stroke-width="3.4" stroke-linecap="round"/><line x1="324.8" y1="335.2" x2="323.3" y2="336.2" stroke="rgb(167,111,64)" stroke-width="3.4" stroke-linecap="round"/><line x1="323.3" y1="336.2" x2="322.4" y2="338.6" stroke="rgb(166,111,64)" stroke-width="3.4" stroke-linecap="round"/><line x1="322.4" y1="338.6" x2="321.8" y2="335.0" stroke="rgb(165,112,64)" stroke-width="3.4" stroke-linecap="round"/><line x1="321.8" y1="335.0" x2="323.3" y2="332.5" stroke="rgb(164,112,65)" stroke-width="3.4" stroke-linecap="round"/><line x1="323.3" y1="332.5" x2="324.0" y2="326.9" stroke="rgb(163,113,65)" stroke-width="3.4" stroke-linecap="round"/><line x1="324.0" y1="326.9" x2="321.2" y2="326.6" stroke="rgb(161,114,66)" stroke-width="3.4" stroke-linecap="round"/><line x1="321.2" y1="326.6" x2="322.4" y2="323.1" stroke="rgb(160,114,66)" stroke-width="3.4" stroke-linecap="round"/><line x1="322.4" y1="323.1" x2="322.2" y2="321.6" stroke="rgb(158,115,67)" stroke-width="3.4" stroke-linecap="round"/><line x1="322.2" y1="321.6" x2="325.2" y2="316.1" stroke="rgb(156,116,67)" stroke-width="3.4" stroke-linecap="round"/><line x1="325.2" y1="316.1" x2="323.5" y2="302.4" stroke="rgb(155,117,68)" stroke-width="3.4" stroke-linecap="round"/><line x1="323.5" y1="302.4" x2="321.6" y2="297.3" stroke="rgb(153,118,68)" stroke-width="3.4" stroke-linecap="round"/><line x1="321.6" y1="297.3" x2="323.0" y2="292.4" stroke="rgb(152,118,69)" stroke-width="3.4" stroke-linecap="round"/><line x1="323.0" y1="292.4" x2="322.2" y2="290.7" stroke="rgb(150,119,69)" stroke-width="3.4" stroke-linecap="round"/><line x1="322.2" y1="290.7" x2="318.4" y2="288.4" stroke="rgb(149,120,70)" stroke-width="3.4" stroke-linecap="round"/><line x1="318.4" y1="288.4" x2="314.8" y2="288.6" stroke="rgb(148,120,70)" stroke-width="3.4" stroke-linecap="round"/><line x1="314.8" y1="288.6" x2="311.8" y2="283.6" stroke="rgb(148,120,70)" stroke-width="3.4" stroke-linecap="round"/><line x1="311.8" y1="283.6" x2="309.6" y2="282.4" stroke="rgb(147,121,70)" stroke-width="3.4" stroke-linecap="round"/><line x1="309.6" y1="282.4" x2="308.6" y2="279.6" stroke="rgb(146,121,71)" stroke-width="3.4" stroke-linecap="round"/><line x1="308.6" y1="279.6" x2="308.2" y2="264.1" stroke="rgb(145,122,71)" stroke-width="3.4" stroke-linecap="round"/><line x1="308.2" y1="264.1" x2="308.8" y2="258.7" stroke="rgb(145,122,71)" stroke-width="3.4" stroke-linecap="round"/><line x1="308.8" y1="258.7" x2="307.8" y2="252.7" stroke="rgb(144,122,71)" stroke-width="3.4" stroke-linecap="round"/><line x1="307.8" y1="252.7" x2="308.2" y2="248.9" stroke="rgb(143,123,72)" stroke-width="3.4" stroke-linecap="round"/><line x1="308.2" y1="248.9" x2="307.4" y2="245.2" stroke="rgb(143,123,72)" stroke-width="3.4" stroke-linecap="round"/><line x1="307.4" y1="245.2" x2="307.7" y2="238.0" stroke="rgb(142,123,72)" stroke-width="3.4" stroke-linecap="round"/><line x1="307.7" y1="238.0" x2="303.0" y2="233.5" stroke="rgb(141,124,72)" stroke-width="3.4" stroke-linecap="round"/><line x1="303.0" y1="233.5" x2="300.2" y2="212.6" stroke="rgb(141,124,72)" stroke-width="3.4" stroke-linecap="round"/><line x1="300.2" y1="212.6" x2="299.9" y2="195.5" stroke="rgb(140,124,73)" stroke-width="3.4" stroke-linecap="round"/><line x1="299.9" y1="195.5" x2="298.1" y2="194.0" stroke="rgb(140,124,73)" stroke-width="3.4" stroke-linecap="round"/><line x1="298.1" y1="194.0" x2="296.2" y2="191.0" stroke="rgb(140,124,73)" stroke-width="3.4" stroke-linecap="round"/><line x1="296.2" y1="191.0" x2="294.2" y2="185.4" stroke="rgb(139,125,73)" stroke-width="3.4" stroke-linecap="round"/><line x1="294.2" y1="185.4" x2="294.0" y2="182.6" stroke="rgb(139,125,73)" stroke-width="3.4" stroke-linecap="round"/><line x1="294.0" y1="182.6" x2="289.7" y2="178.4" stroke="rgb(139,125,73)" stroke-width="3.4" stroke-linecap="round"/><line x1="289.7" y1="178.4" x2="287.8" y2="175.2" stroke="rgb(138,125,73)" stroke-width="3.4" stroke-linecap="round"/><line x1="287.8" y1="175.2" x2="286.7" y2="169.8" stroke="rgb(138,125,73)" stroke-width="3.4" stroke-linecap="round"/><line x1="286.7" y1="169.8" x2="287.4" y2="160.0" stroke="rgb(137,126,74)" stroke-width="3.4" stroke-linecap="round"/><line x1="287.4" y1="160.0" x2="284.1" y2="149.8" stroke="rgb(137,126,74)" stroke-width="3.4" stroke-linecap="round"/><line x1="284.1" y1="149.8" x2="271.7" y2="138.0" stroke="rgb(136,126,74)" stroke-width="3.4" stroke-linecap="round"/><line x1="271.7" y1="138.0" x2="259.1" y2="131.2" stroke="rgb(135,127,74)" stroke-width="3.4" stroke-linecap="round"/><line x1="259.1" y1="131.2" x2="253.4" y2="127.0" stroke="rgb(134,127,75)" stroke-width="3.4" stroke-linecap="round"/><line x1="253.4" y1="127.0" x2="247.4" y2="124.6" stroke="rgb(134,127,75)" stroke-width="3.4" stroke-linecap="round"/><line x1="247.4" y1="124.6" x2="244.2" y2="123.3" stroke="rgb(133,128,75)" stroke-width="3.4" stroke-linecap="round"/><line x1="244.2" y1="123.3" x2="240.5" y2="122.5" stroke="rgb(132,128,75)" stroke-width="3.4" stroke-linecap="round"/><line x1="240.5" y1="122.5" x2="234.7" y2="119.9" stroke="rgb(131,129,76)" stroke-width="3.4" stroke-linecap="round"/><line x1="234.7" y1="119.9" x2="232.9" y2="116.9" stroke="rgb(130,129,76)" stroke-width="3.4" stroke-linecap="round"/><line x1="232.9" y1="116.9" x2="228.2" y2="113.3" stroke="rgb(129,130,76)" stroke-width="3.4" stroke-linecap="round"/><line x1="228.2" y1="113.3" x2="219.3" y2="103.9" stroke="rgb(127,131,77)" stroke-width="3.4" stroke-linecap="round"/><line x1="219.3" y1="103.9" x2="219.4" y2="101.9" stroke="rgb(126,131,77)" stroke-width="3.4" stroke-linecap="round"/><line x1="219.4" y1="101.9" x2="213.0" y2="96.2" stroke="rgb(124,132,78)" stroke-width="3.4" stroke-linecap="round"/><line x1="213.0" y1="96.2" x2="209.0" y2="85.2" stroke="rgb(122,133,79)" stroke-width="3.4" stroke-linecap="round"/><line x1="209.0" y1="85.2" x2="202.6" y2="87.2" stroke="rgb(121,134,79)" stroke-width="3.4" stroke-linecap="round"/><line x1="202.6" y1="87.2" x2="200.4" y2="89.2" stroke="rgb(119,135,80)" stroke-width="3.4" stroke-linecap="round"/><line x1="200.4" y1="89.2" x2="193.0" y2="88.3" stroke="rgb(117,136,80)" stroke-width="3.4" stroke-linecap="round"/><line x1="193.0" y1="88.3" x2="188.9" y2="86.2" stroke="rgb(115,137,81)" stroke-width="3.4" stroke-linecap="round"/><line x1="188.9" y1="86.2" x2="185.9" y2="81.3" stroke="rgb(113,138,82)" stroke-width="3.4" stroke-linecap="round"/><line x1="185.9" y1="81.3" x2="184.5" y2="75.8" stroke="rgb(111,139,82)" stroke-width="3.4" stroke-linecap="round"/><line x1="184.5" y1="75.8" x2="166.1" y2="64.9" stroke="rgb(109,140,83)" stroke-width="3.4" stroke-linecap="round"/><line x1="166.1" y1="64.9" x2="162.8" y2="61.1" stroke="rgb(107,141,84)" stroke-width="3.4" stroke-linecap="round"/><line x1="162.8" y1="61.1" x2="161.2" y2="57.3" stroke="rgb(105,142,84)" stroke-width="3.4" stroke-linecap="round"/><line x1="161.2" y1="57.3" x2="157.6" y2="50.6" stroke="rgb(103,143,85)" stroke-width="3.4" stroke-linecap="round"/><line x1="157.6" y1="50.6" x2="155.9" y2="46.0" stroke="rgb(102,143,85)" stroke-width="3.4" stroke-linecap="round"/><line x1="155.9" y1="46.0" x2="155.6" y2="41.0" stroke="rgb(101,144,86)" stroke-width="3.4" stroke-linecap="round"/><line x1="155.6" y1="41.0" x2="153.5" y2="31.4" stroke="rgb(100,144,86)" stroke-width="3.4" stroke-linecap="round"/><line x1="153.5" y1="31.4" x2="146.8" y2="30.1" stroke="rgb(99,145,86)" stroke-width="3.4" stroke-linecap="round"/><line x1="146.8" y1="30.1" x2="144.6" y2="29.0" stroke="rgb(98,145,87)" stroke-width="3.4" stroke-linecap="round"/><line x1="144.6" y1="29.0" x2="141.6" y2="30.2" stroke="rgb(97,146,87)" stroke-width="3.4" stroke-linecap="round"/><line x1="141.6" y1="30.2" x2="136.3" y2="29.8" stroke="rgb(96,146,87)" stroke-width="3.4" stroke-linecap="round"/><line x1="136.3" y1="29.8" x2="128.8" y2="32.1" stroke="rgb(95,147,88)" stroke-width="3.4" stroke-linecap="round"/><line x1="128.8" y1="32.1" x2="124.7" y2="31.5" stroke="rgb(94,147,88)" stroke-width="3.4" stroke-linecap="round"/><line x1="124.7" y1="31.5" x2="120.9" y2="27.3" stroke="rgb(93,148,88)" stroke-width="3.4" stroke-linecap="round"/><line x1="120.9" y1="27.3" x2="110.3" y2="27.4" stroke="rgb(93,148,88)" stroke-width="3.4" stroke-linecap="round"/><line x1="110.3" y1="27.4" x2="101.6" y2="26.7" stroke="rgb(92,148,89)" stroke-width="3.4" stroke-linecap="round"/><line x1="101.6" y1="26.7" x2="95.4" y2="27.8" stroke="rgb(92,148,89)" stroke-width="3.4" stroke-linecap="round"/><line x1="95.4" y1="27.8" x2="87.4" y2="29.3" stroke="rgb(91,149,89)" stroke-width="3.4" stroke-linecap="round"/><line x1="87.4" y1="29.3" x2="80.9" y2="26.6" stroke="rgb(91,149,89)" stroke-width="3.4" stroke-linecap="round"/><line x1="80.9" y1="26.6" x2="76.7" y2="24.5" stroke="rgb(91,149,89)" stroke-width="3.4" stroke-linecap="round"/><line x1="76.7" y1="24.5" x2="68.5" y2="21.7" stroke="rgb(91,149,89)" stroke-width="3.4" stroke-linecap="round"/><line x1="68.5" y1="21.7" x2="65.5" y2="18.0" stroke="rgb(91,149,89)" stroke-width="3.4" stroke-linecap="round"/><line x1="65.5" y1="18.0" x2="63.7" y2="16.0" stroke="rgb(91,149,89)" stroke-width="3.4" stroke-linecap="round"/><circle cx="63.7" cy="16.0" r="7" fill="#1f7a4d" stroke="#fff" stroke-width="2.5"/><circle cx="63.7" cy="16.0" r="7" fill="#a32b2b" stroke="#fff" stroke-width="2.5"/></svg>